<?xml version="1.0" standalone="no"?>
<!DOCTYPE svg PUBLIC "-//W3C//DTD SVG 20010904//EN"
 "http://www.w3.org/TR/2001/REC-SVG-20010904/DTD/svg10.dtd">
<svg version="1.0" xmlns="http://www.w3.org/2000/svg"
 width="700.000000pt" height="700.000000pt" viewBox="0 0 700.000000 700.000000"
 preserveAspectRatio="xMidYMid meet">
<metadata>
Created by potrace 1.11, written by Peter Selinger 2001-2013
</metadata>
<g transform="translate(0.000000,700.000000) scale(0.100000,-0.100000)"
fill="#000000" stroke="none">
<path d="M3178 5148 c-138 -18 -273 -85 -378 -188 -74 -73 -118 -145 -151
-247 -42 -127 -23 -342 37 -427 13 -19 14 -16 14 32 0 35 14 96 41 178 23 69
43 124 45 122 2 -2 22 -48 44 -103 48 -113 84 -171 132 -206 56 -43 55 -43 56
26 0 36 10 102 21 147 11 46 21 106 24 134 10 131 117 234 242 234 90 0 163
-49 206 -138 32 -66 32 -201 1 -286 -20 -54 -20 -62 -7 -83 18 -27 143 -152
211 -211 l49 -42 17 22 c80 102 148 296 153 438 3 75 -18 207 -36 225 -5 5 -9
15 -9 21 0 22 -67 127 -108 171 -50 53 -149 117 -215 139 -29 10 -53 17 -54
16 -2 0 -17 4 -35 9 -67 19 -216 28 -300 17z"/>
<path d="M4 4870 c9 -65 41 -149 87 -227 38 -62 178 -209 251 -263 28 -21 57
-53 70 -80 l23 -45 0 -805 c0 -785 0 -806 -20 -845 -20 -39 -61 -71 -195 -150
-28 -16 -74 -45 -103 -62 l-52 -33 715 1 c635 1 729 3 836 19 195 29 335 84
506 196 98 65 109 79 98 124 -4 14 -6 78 -4 144 1 65 -1 114 -5 110 -5 -5 -20
-27 -35 -49 l-26 -40 4 55 c21 257 32 330 66 418 38 99 97 194 165 270 31 34
51 62 45 62 -7 0 -77 -13 -157 -30 -79 -16 -147 -30 -151 -30 -9 0 171 174
235 226 29 23 90 64 137 90 63 35 83 51 79 63 -23 68 -112 230 -162 297 -146
196 -340 333 -583 412 -84 28 -122 37 -238 57 -19 4 -264 8 -545 10 -621 4
-718 9 -830 47 -65 21 -168 72 -199 97 -18 15 -19 14 -12 -39z m1480 -695
c324 -42 492 -317 451 -737 -17 -181 -122 -351 -261 -425 -105 -55 -168 -66
-399 -67 l-160 0 -1 614 c-1 338 0 617 1 620 4 7 309 3 369 -5z"/>
<path d="M4070 4887 c1 -140 144 -355 333 -497 25 -19 58 -57 73 -84 23 -42
27 -63 30 -145 2 -53 3 -99 4 -102 0 -3 37 13 83 36 78 40 144 66 122 48 -5
-5 -26 -26 -45 -48 -32 -35 -33 -37 -8 -22 92 57 234 86 404 82 93 -3 114 -1
114 11 0 17 -5 16 180 15 169 -1 224 -7 299 -32 184 -64 300 -213 339 -434 13
-75 5 -296 -13 -365 -40 -154 -131 -279 -246 -337 -98 -49 -166 -64 -301 -67
-49 0 -88 -2 -88 -3 0 -1 14 -17 30 -35 69 -74 109 -170 114 -272 5 -81 -8
-144 -45 -215 -16 -30 -29 -57 -29 -59 0 -2 49 -1 110 2 265 13 454 74 661
211 275 183 450 461 503 800 16 98 18 283 5 367 -5 29 -11 67 -14 84 -9 61
-58 200 -96 278 -115 230 -300 416 -524 525 -134 66 -237 99 -353 117 -20 3
-48 8 -62 11 -14 3 -223 6 -465 8 -604 4 -667 6 -770 20 -93 13 -125 20 -160
35 -11 5 -40 18 -65 29 -25 10 -62 31 -82 45 l-38 25 0 -32z"/>
<path d="M3146 4537 c-37 -55 -58 -246 -36 -325 7 -29 20 -47 45 -62 51 -32
137 -151 121 -168 -3 -3 -6 -1 -6 5 0 18 -62 73 -133 119 -37 24 -70 44 -72
44 -3 0 -36 19 -73 42 -79 50 -145 109 -174 156 -11 18 -23 31 -26 28 -13 -14
-8 -106 9 -161 10 -33 19 -61 19 -62 0 -1 -15 3 -33 8 -18 5 -71 11 -117 13
l-84 5 47 -42 c59 -53 97 -105 97 -132 0 -12 -10 -31 -22 -42 -21 -19 -133
-86 -230 -137 -20 -11 -53 -34 -73 -50 l-36 -31 103 0 c94 0 106 -2 135 -24
18 -14 36 -34 39 -45 9 -29 6 -102 -7 -149 -11 -43 -4 -61 14 -37 36 48 284
190 330 190 31 0 27 19 -5 25 -54 9 -82 13 -92 14 -21 2 42 54 99 82 77 37
151 55 241 57 73 1 69 -1 -46 -28 -30 -7 -77 -24 -105 -38 l-50 -25 35 -9 c19
-5 53 -14 74 -19 l39 -11 -34 -20 c-54 -32 -119 -99 -145 -151 l-25 -48 33 17
c46 25 161 24 208 0 39 -21 50 -31 74 -68 36 -54 12 -176 -43 -220 l-26 -21
63 7 c37 4 62 3 62 -2 0 -6 -20 -31 -43 -56 -48 -51 -46 -53 34 -30 68 20 160
79 182 116 l16 28 -38 0 c-22 0 -44 6 -51 15 -12 15 -9 87 5 130 4 11 3 15 -2
9 -27 -35 -73 -20 -73 24 0 29 20 103 32 117 4 5 8 12 8 16 0 10 -83 27 -116
23 -15 -1 -23 1 -18 6 15 15 180 37 263 35 111 -2 131 -25 96 -109 l-15 -36
32 -1 c140 -3 209 -49 210 -139 0 -22 4 -40 8 -40 4 0 28 23 54 50 64 69 98
145 103 234 4 70 4 71 -14 48 -20 -25 -72 -62 -87 -62 -5 0 -7 3 -3 6 10 11
-22 64 -46 75 -19 9 -22 17 -21 66 1 99 -66 209 -205 338 -223 205 -291 303
-301 430 -3 38 -31 -46 -37 -110 -8 -97 2 -116 146 -253 113 -107 211 -225
211 -254 0 -5 -21 17 -47 49 -26 32 -50 60 -53 63 -9 6 -158 143 -216 197
-114 107 -180 219 -186 316 -1 20 -3 37 -5 37 -1 0 -9 -10 -17 -23z m403 -682
c34 -17 97 -88 104 -117 5 -17 2 -19 -21 -13 -45 10 -75 39 -99 93 -12 29 -20
52 -17 52 3 0 18 -7 33 -15z"/>
<path d="M5105 4095 c-41 -19 -45 -24 -25 -24 14 -1 42 -4 63 -7 36 -6 37 -6
37 25 0 37 -8 38 -75 6z"/>
<path d="M4803 4045 c-56 -17 -120 -55 -190 -113 -78 -65 -104 -82 -124 -82
-29 0 -29 27 1 74 37 57 18 52 -64 -18 -108 -92 -199 -219 -248 -344 l-16 -43
66 63 c157 148 362 242 547 253 l80 4 -85 -18 c-105 -23 -154 -41 -247 -91
-147 -79 -285 -195 -410 -344 l-75 -89 29 -12 c15 -7 63 -40 105 -73 43 -34
81 -62 86 -62 4 0 21 28 37 63 55 115 195 328 259 393 119 120 293 152 444 81
39 -18 44 -18 60 -4 56 51 223 92 374 92 99 0 99 0 4 71 -175 132 -388 173
-576 111 -73 -25 -100 -25 -100 -3 0 18 12 30 63 69 52 39 48 44 -20 22z"/>
<path d="M2481 3591 c-114 -112 -196 -257 -216 -381 l-7 -45 35 34 c39 37 67
37 61 -1 -2 -13 -15 -68 -29 -123 -36 -138 -42 -325 -15 -446 30 -139 89 -257
180 -362 26 -30 46 -36 31 -9 -20 38 -13 122 10 122 6 0 27 -19 47 -42 129
-150 250 -227 433 -274 67 -18 241 -24 315 -12 296 49 534 234 709 552 23 42
25 52 13 60 -8 6 -39 32 -69 58 -30 25 -87 73 -128 107 l-74 60 -47 -67 c-86
-122 -207 -223 -315 -265 -180 -69 -372 18 -450 204 -82 195 -26 443 147 651
l39 47 -25 7 c-47 11 -92 -5 -180 -67 -47 -33 -86 -55 -86 -50 0 6 9 56 20
112 11 57 18 104 17 106 -2 1 -39 -20 -82 -49 -76 -50 -126 -95 -228 -206 -26
-29 -50 -52 -52 -52 -3 0 -3 21 0 48 2 26 7 80 10 121 3 41 10 92 15 115 12
53 13 116 0 116 -5 0 -41 -31 -79 -69z"/>
<path d="M4769 3636 c-76 -20 -136 -62 -199 -142 l-60 -75 0 -243 0 -243 25
-11 c56 -26 104 -4 112 49 2 12 -15 71 -37 132 -22 60 -39 112 -36 114 4 4
165 -91 218 -128 20 -15 37 -18 75 -14 107 12 201 6 271 -16 18 -6 36 -9 38
-6 7 7 7 588 0 594 -9 9 -59 -16 -96 -47 -19 -17 -39 -30 -43 -30 -5 0 -23 11
-40 24 -62 48 -145 63 -228 42z"/>
<path d="M3480 3555 c-1 -11 -4 -32 -6 -47 -4 -41 34 -100 106 -160 70 -58 83
-84 93 -177 9 -86 45 -131 212 -269 289 -236 288 -234 287 -456 -1 -147 0
-153 28 -211 16 -33 44 -74 62 -92 32 -30 100 -73 117 -73 4 0 -3 23 -17 50
-35 72 -34 151 4 220 l28 52 16 -63 c34 -136 119 -244 238 -301 53 -26 79 -32
156 -36 52 -2 116 1 147 7 74 16 207 82 246 123 l32 33 -92 0 c-81 0 -98 3
-147 28 -30 16 -59 32 -64 37 -4 4 23 8 61 9 318 3 525 314 377 567 -70 120
-227 205 -378 204 l-41 0 41 -19 c81 -37 134 -135 119 -222 -15 -87 -138 -171
-253 -171 -96 -1 -94 -2 -61 33 59 63 73 198 30 294 -19 42 -77 115 -92 115
-4 0 -6 -17 -4 -37 5 -52 -27 -117 -73 -145 -45 -27 -105 -27 -159 1 -21 11
-130 96 -243 190 -217 180 -234 190 -345 196 -67 3 -83 16 -96 76 -15 63 -37
105 -63 117 -13 5 -50 13 -82 17 -111 12 -149 35 -172 100 -8 23 -11 25 -12
10z"/>
<path d="M4925 2801 c0 -131 0 -130 62 -84 58 43 54 125 -9 178 -50 42 -53 36
-53 -94z"/>
<path d="M6690 2837 c-124 -32 -199 -174 -160 -305 40 -131 195 -200 326 -143
92 40 139 117 139 227 -1 84 -31 144 -93 187 -66 46 -128 56 -212 34z m167
-61 c82 -42 125 -156 92 -243 -25 -66 -109 -122 -185 -123 -113 0 -202 96
-188 203 9 62 15 77 47 113 59 68 159 90 234 50z"/>
<path d="M6660 2604 l0 -125 33 3 c29 3 32 6 33 35 1 50 12 51 50 5 29 -34 42
-42 70 -42 33 0 34 1 23 23 -6 12 -20 32 -31 44 -20 21 -20 21 0 32 31 17 43
62 25 98 -19 41 -51 53 -133 53 l-70 0 0 -126z m148 39 c2 -13 2 -23 0 -23 -2
-1 -19 -3 -39 -6 -33 -5 -37 -3 -41 20 -7 33 -1 38 42 34 28 -2 36 -8 38 -25z"/>
</g>
</svg>
